<?xml version="1.0" encoding="utf-8" standalone="no"?>
<!DOCTYPE svg PUBLIC "-//W3C//DTD SVG 1.1//EN"
  "http://www.w3.org/Graphics/SVG/1.1/DTD/svg11.dtd">
<svg xmlns:xlink="http://www.w3.org/1999/xlink" width="720pt" height="432pt" viewBox="0 0 720 432" xmlns="http://www.w3.org/2000/svg" version="1.1">
 <metadata>
  <rdf:RDF xmlns:dc="http://purl.org/dc/elements/1.1/" xmlns:cc="http://creativecommons.org/ns#" xmlns:rdf="http://www.w3.org/1999/02/22-rdf-syntax-ns#">
   <cc:Work>
    <dc:type rdf:resource="http://purl.org/dc/dcmitype/StillImage"/>
    <dc:date>2025-05-04T19:11:01.290005</dc:date>
    <dc:format>image/svg+xml</dc:format>
    <dc:creator>
     <cc:Agent>
      <dc:title>Matplotlib v3.9.1, https://matplotlib.org/</dc:title>
     </cc:Agent>
    </dc:creator>
   </cc:Work>
  </rdf:RDF>
 </metadata>
 <defs>
  <style type="text/css">*{stroke-linejoin: round; stroke-linecap: butt}</style>
 </defs>
 <g id="figure_1">
  <g id="patch_1">
   <path d="M 0 432 
L 720 432 
L 720 0 
L 0 0 
z
" style="fill: #ffffff"/>
  </g>
  <g id="axes_1">
   <g id="patch_2">
    <path d="M 59.465 363.0175 
L 700.56 363.0175 
L 700.56 43.08 
L 59.465 43.08 
z
" style="fill: #e5e5e5"/>
   </g>
   <g id="matplotlib.axis_1">
    <g id="xtick_1">
     <g id="line2d_1">
      <path d="M 64.32178 363.0175 
L 64.32178 43.08 
" clip-path="url(#paf557f6d32)" style="fill: none; stroke: #ffffff; stroke-width: 0.8; stroke-linecap: square"/>
     </g>
     <g id="line2d_2">
      <defs>
       <path id="m57b2b77d13" d="M 0 0 
L 0 3.5 
" style="stroke: #555555; stroke-width: 0.8"/>
      </defs>
      <g>
       <use xlink:href="#m57b2b77d13" x="64.32178" y="363.0175" style="fill: #555555; stroke: #555555; stroke-width: 0.8"/>
      </g>
     </g>
     <g id="text_1">
      <!-- 0 -->
      <g style="fill: #555555" transform="translate(59.82178 382.507812) scale(0.18 -0.18)">
       <defs>
        <path id="CMUSerif-Roman-30" d="M 250 2047 
Q 250 2988 488 3500 
Q 819 4263 1600 4263 
Q 1766 4263 1939 4217 
Q 2113 4172 2333 4000 
Q 2553 3828 2688 3547 
Q 2944 3003 2944 2047 
Q 2944 1113 2706 603 
Q 2359 -141 1594 -141 
Q 1306 -141 1014 6 
Q 722 153 538 506 
Q 250 1034 250 2047 
z
M 781 2125 
Q 781 1159 850 775 
Q 928 359 1142 179 
Q 1356 0 1594 0 
Q 1850 0 2064 192 
Q 2278 384 2344 800 
Q 2416 1209 2413 2125 
Q 2413 3016 2350 3372 
Q 2266 3788 2042 3955 
Q 1819 4122 1594 4122 
Q 1509 4122 1420 4097 
Q 1331 4072 1203 4000 
Q 1075 3928 976 3750 
Q 878 3572 831 3303 
Q 781 2956 781 2125 
z
" transform="scale(0.015625)"/>
       </defs>
       <use xlink:href="#CMUSerif-Roman-30"/>
      </g>
     </g>
    </g>
    <g id="xtick_2">
     <g id="line2d_3">
      <path d="M 185.741288 363.0175 
L 185.741288 43.08 
" clip-path="url(#paf557f6d32)" style="fill: none; stroke: #ffffff; stroke-width: 0.8; stroke-linecap: square"/>
     </g>
     <g id="line2d_4">
      <g>
       <use xlink:href="#m57b2b77d13" x="185.741288" y="363.0175" style="fill: #555555; stroke: #555555; stroke-width: 0.8"/>
      </g>
     </g>
     <g id="text_2">
      <!-- 5 -->
      <g style="fill: #555555" transform="translate(181.241288 382.507812) scale(0.18 -0.18)">
       <defs>
        <path id="CMUSerif-Roman-35" d="M 319 1031 
Q 319 1222 422 1295 
Q 525 1369 634 1369 
Q 781 1369 867 1276 
Q 953 1184 953 1056 
Q 953 928 867 836 
Q 781 744 634 744 
Q 563 744 525 756 
Q 609 463 867 250 
Q 1125 38 1466 38 
Q 1894 38 2150 453 
Q 2303 722 2303 1331 
Q 2303 1869 2188 2138 
Q 2009 2547 1644 2547 
Q 1125 2547 819 2100 
Q 781 2044 738 2041 
Q 675 2041 661 2077 
Q 647 2113 647 2209 
L 647 4103 
Q 647 4256 709 4256 
Q 734 4256 788 4238 
Q 1191 4059 1638 4056 
Q 2097 4056 2509 4244 
Q 2541 4263 2559 4263 
Q 2622 4263 2625 4191 
Q 2625 4166 2573 4092 
Q 2522 4019 2412 3923 
Q 2303 3828 2162 3737 
Q 2022 3647 1817 3586 
Q 1613 3525 1388 3525 
Q 1119 3525 844 3609 
L 844 2363 
Q 1175 2688 1656 2688 
Q 2169 2688 2522 2275 
Q 2875 1863 2875 1288 
Q 2875 684 2458 271 
Q 2041 -141 1478 -141 
Q 966 -141 642 225 
Q 319 591 319 1031 
z
" transform="scale(0.015625)"/>
       </defs>
       <use xlink:href="#CMUSerif-Roman-35"/>
      </g>
     </g>
    </g>
    <g id="xtick_3">
     <g id="line2d_5">
      <path d="M 307.160795 363.0175 
L 307.160795 43.08 
" clip-path="url(#paf557f6d32)" style="fill: none; stroke: #ffffff; stroke-width: 0.8; stroke-linecap: square"/>
     </g>
     <g id="line2d_6">
      <g>
       <use xlink:href="#m57b2b77d13" x="307.160795" y="363.0175" style="fill: #555555; stroke: #555555; stroke-width: 0.8"/>
      </g>
     </g>
     <g id="text_3">
      <!-- 10 -->
      <g style="fill: #555555" transform="translate(298.160795 382.507812) scale(0.18 -0.18)">
       <defs>
        <path id="CMUSerif-Roman-31" d="M 569 3653 
L 569 3853 
Q 1338 3853 1734 4263 
Q 1844 4263 1862 4238 
Q 1881 4213 1881 4097 
L 1881 506 
Q 1881 316 1975 256 
Q 2069 197 2478 197 
L 2681 197 
L 2681 0 
Q 2456 19 1643 19 
Q 831 19 609 0 
L 609 197 
L 813 197 
Q 1216 197 1312 255 
Q 1409 313 1409 506 
L 1409 3822 
Q 1075 3653 569 3653 
z
" transform="scale(0.015625)"/>
       </defs>
       <use xlink:href="#CMUSerif-Roman-31"/>
       <use xlink:href="#CMUSerif-Roman-30" x="50"/>
      </g>
     </g>
    </g>
    <g id="xtick_4">
     <g id="line2d_7">
      <path d="M 428.580303 363.0175 
L 428.580303 43.08 
" clip-path="url(#paf557f6d32)" style="fill: none; stroke: #ffffff; stroke-width: 0.8; stroke-linecap: square"/>
     </g>
     <g id="line2d_8">
      <g>
       <use xlink:href="#m57b2b77d13" x="428.580303" y="363.0175" style="fill: #555555; stroke: #555555; stroke-width: 0.8"/>
      </g>
     </g>
     <g id="text_4">
      <!-- 15 -->
      <g style="fill: #555555" transform="translate(419.580303 382.507812) scale(0.18 -0.18)">
       <use xlink:href="#CMUSerif-Roman-31"/>
       <use xlink:href="#CMUSerif-Roman-35" x="50"/>
      </g>
     </g>
    </g>
    <g id="xtick_5">
     <g id="line2d_9">
      <path d="M 549.999811 363.0175 
L 549.999811 43.08 
" clip-path="url(#paf557f6d32)" style="fill: none; stroke: #ffffff; stroke-width: 0.8; stroke-linecap: square"/>
     </g>
     <g id="line2d_10">
      <g>
       <use xlink:href="#m57b2b77d13" x="549.999811" y="363.0175" style="fill: #555555; stroke: #555555; stroke-width: 0.8"/>
      </g>
     </g>
     <g id="text_5">
      <!-- 20 -->
      <g style="fill: #555555" transform="translate(540.999811 382.507812) scale(0.18 -0.18)">
       <defs>
        <path id="CMUSerif-Roman-32" d="M 319 0 
Q 319 116 330 150 
Q 341 184 391 238 
L 1619 1606 
Q 2291 2363 2291 3022 
Q 2291 3450 2067 3756 
Q 1844 4063 1434 4063 
Q 1153 4063 915 3891 
Q 678 3719 569 3413 
Q 588 3419 653 3419 
Q 813 3419 902 3319 
Q 991 3219 991 3084 
Q 991 2913 880 2830 
Q 769 2747 659 2747 
Q 616 2747 558 2756 
Q 500 2766 409 2855 
Q 319 2944 319 3103 
Q 319 3550 658 3906 
Q 997 4263 1516 4263 
Q 2103 4263 2489 3914 
Q 2875 3566 2875 3022 
Q 2875 2831 2817 2657 
Q 2759 2484 2682 2350 
Q 2606 2216 2400 2000 
Q 2194 1784 2028 1631 
Q 1863 1478 1491 1153 
L 813 494 
L 1966 494 
Q 2528 494 2572 544 
Q 2634 634 2713 1113 
L 2875 1113 
L 2694 0 
L 319 0 
z
" transform="scale(0.015625)"/>
       </defs>
       <use xlink:href="#CMUSerif-Roman-32"/>
       <use xlink:href="#CMUSerif-Roman-30" x="50"/>
      </g>
     </g>
    </g>
    <g id="xtick_6">
     <g id="line2d_11">
      <path d="M 671.419318 363.0175 
L 671.419318 43.08 
" clip-path="url(#paf557f6d32)" style="fill: none; stroke: #ffffff; stroke-width: 0.8; stroke-linecap: square"/>
     </g>
     <g id="line2d_12">
      <g>
       <use xlink:href="#m57b2b77d13" x="671.419318" y="363.0175" style="fill: #555555; stroke: #555555; stroke-width: 0.8"/>
      </g>
     </g>
     <g id="text_6">
      <!-- 25 -->
      <g style="fill: #555555" transform="translate(662.419318 382.507812) scale(0.18 -0.18)">
       <use xlink:href="#CMUSerif-Roman-32"/>
       <use xlink:href="#CMUSerif-Roman-35" x="50"/>
      </g>
     </g>
    </g>
    <g id="text_7">
     <!-- Dimension (n) -->
     <g style="fill: #555555" transform="translate(312.423063 406.198125) scale(0.216 -0.216)">
      <defs>
       <path id="CMUSerif-Roman-44" d="M 225 0 
L 225 197 
L 378 197 
Q 725 197 804 255 
Q 884 313 884 500 
L 884 3872 
Q 884 4056 803 4114 
Q 722 4172 378 4172 
L 225 4172 
L 225 4372 
L 2566 4372 
Q 3384 4372 3954 3719 
Q 4525 3066 4525 2150 
Q 4525 1253 3951 626 
Q 3378 0 2566 0 
L 225 0 
z
M 1434 453 
Q 1434 288 1481 242 
Q 1528 197 1747 197 
L 2394 197 
Q 2816 197 3100 370 
Q 3384 544 3531 744 
Q 3884 1225 3884 2150 
Q 3884 3122 3553 3578 
Q 3125 4172 2388 4172 
L 1747 4172 
Q 1528 4172 1481 4128 
Q 1434 4084 1434 3916 
L 1434 453 
z
" transform="scale(0.015625)"/>
       <path id="CMUSerif-Roman-69" d="M 213 0 
L 213 197 
Q 553 197 631 239 
Q 709 281 709 488 
L 709 2209 
Q 709 2447 629 2503 
Q 550 2559 238 2559 
L 238 2759 
L 1131 2828 
L 1131 481 
Q 1131 291 1200 244 
Q 1269 197 1581 197 
L 1581 0 
Q 928 19 916 19 
Q 828 19 213 0 
z
M 481 3944 
Q 481 4072 579 4176 
Q 678 4281 818 4281 
Q 959 4281 1059 4186 
Q 1159 4091 1159 3942 
Q 1159 3794 1059 3698 
Q 959 3603 819 3603 
Q 672 3603 576 3706 
Q 481 3809 481 3944 
z
" transform="scale(0.015625)"/>
       <path id="CMUSerif-Roman-6d" d="M 206 0 
L 206 197 
Q 547 197 625 239 
Q 703 281 703 488 
L 703 2203 
Q 703 2441 620 2500 
Q 538 2559 206 2559 
L 206 2759 
L 1106 2828 
L 1106 2156 
Q 1406 2828 2053 2828 
Q 2803 2828 2906 2203 
Q 3016 2447 3245 2637 
Q 3475 2828 3834 2828 
Q 4316 2828 4506 2591 
Q 4647 2431 4675 2253 
Q 4703 2075 4703 1613 
L 4703 391 
Q 4709 256 4812 226 
Q 4916 197 5203 197 
L 5203 0 
Q 4550 19 4488 19 
Q 4438 19 3763 0 
L 3763 197 
Q 4103 197 4183 239 
Q 4263 281 4263 488 
L 4263 1978 
Q 4263 2303 4163 2495 
Q 4063 2688 3788 2688 
Q 3456 2688 3190 2409 
Q 2925 2131 2925 1663 
L 2925 488 
Q 2925 281 3004 239 
Q 3084 197 3425 197 
L 3425 0 
Q 2772 19 2706 19 
Q 2656 19 1984 0 
L 1984 197 
Q 2325 197 2404 239 
Q 2484 281 2484 488 
L 2484 1978 
Q 2484 2303 2384 2495 
Q 2284 2688 2009 2688 
Q 1678 2688 1412 2409 
Q 1147 2131 1147 1663 
L 1147 488 
Q 1147 281 1226 239 
Q 1306 197 1644 197 
L 1644 0 
Q 991 19 928 19 
Q 878 19 206 0 
z
" transform="scale(0.015625)"/>
       <path id="CMUSerif-Roman-65" d="M 178 1409 
Q 178 2013 565 2441 
Q 953 2869 1509 2869 
Q 2072 2869 2364 2503 
Q 2656 2138 2656 1613 
Q 2656 1516 2631 1497 
Q 2606 1478 2497 1478 
L 709 1478 
Q 709 825 903 519 
Q 1172 91 1625 91 
Q 1688 91 1763 103 
Q 1838 116 1991 170 
Q 2144 225 2278 372 
Q 2413 519 2491 750 
Q 2509 841 2572 838 
Q 2656 838 2656 763 
Q 2656 706 2595 579 
Q 2534 453 2418 303 
Q 2303 153 2079 40 
Q 1856 -72 1588 -72 
Q 1025 -72 601 354 
Q 178 781 178 1409 
z
M 716 1613 
L 2234 1613 
Q 2234 1747 2211 1897 
Q 2188 2047 2120 2255 
Q 2053 2463 1897 2594 
Q 1741 2725 1509 2725 
Q 1406 2725 1295 2681 
Q 1184 2638 1050 2531 
Q 916 2425 822 2184 
Q 728 1944 716 1613 
z
" transform="scale(0.015625)"/>
       <path id="CMUSerif-Roman-6e" d="M 206 0 
L 206 197 
Q 547 197 625 239 
Q 703 281 703 488 
L 703 2203 
Q 703 2441 620 2500 
Q 538 2559 206 2559 
L 206 2759 
L 1106 2828 
L 1106 2156 
Q 1406 2828 2053 2828 
Q 2534 2828 2725 2591 
Q 2866 2431 2895 2253 
Q 2925 2075 2925 1613 
L 2925 391 
Q 2931 256 3034 226 
Q 3138 197 3425 197 
L 3425 0 
Q 2772 19 2706 19 
Q 2656 19 1984 0 
L 1984 197 
Q 2325 197 2404 239 
Q 2484 281 2484 488 
L 2484 1978 
Q 2484 2303 2384 2495 
Q 2284 2688 2009 2688 
Q 1678 2688 1412 2409 
Q 1147 2131 1147 1663 
L 1147 488 
Q 1147 281 1226 239 
Q 1306 197 1644 197 
L 1644 0 
Q 991 19 928 19 
Q 878 19 206 0 
z
" transform="scale(0.015625)"/>
       <path id="CMUSerif-Roman-73" d="M 213 84 
L 213 928 
Q 213 1000 216 1025 
Q 219 1050 237 1069 
Q 256 1088 294 1088 
Q 338 1088 355 1069 
Q 372 1050 384 978 
Q 481 538 689 305 
Q 897 72 1275 72 
Q 1634 72 1815 231 
Q 1997 391 1997 653 
Q 1997 1122 1331 1241 
Q 947 1319 787 1370 
Q 628 1422 488 1538 
Q 213 1763 213 2081 
Q 213 2400 455 2634 
Q 697 2869 1234 2869 
Q 1594 2869 1838 2688 
Q 1909 2744 1947 2791 
Q 2031 2869 2075 2869 
Q 2125 2869 2134 2836 
Q 2144 2803 2144 2713 
L 2144 2069 
Q 2144 1997 2141 1972 
Q 2138 1947 2119 1930 
Q 2100 1913 2059 1913 
Q 1988 1913 1984 1972 
Q 1934 2747 1234 2747 
Q 856 2747 687 2601 
Q 519 2456 519 2259 
Q 519 2150 570 2067 
Q 622 1984 689 1936 
Q 756 1888 881 1842 
Q 1006 1797 1082 1781 
Q 1159 1766 1306 1734 
Q 1819 1638 2034 1428 
Q 2303 1159 2303 819 
Q 2303 441 2047 184 
Q 1791 -72 1275 -72 
Q 859 -72 569 206 
Q 531 169 503 136 
Q 475 103 464 90 
Q 453 78 450 70 
Q 447 63 441 56 
Q 313 -72 281 -72 
Q 231 -72 222 -39 
Q 213 -6 213 84 
z
" transform="scale(0.015625)"/>
       <path id="CMUSerif-Roman-6f" d="M 601 345 
Q 178 763 178 1370 
Q 178 1978 592 2423 
Q 1006 2869 1600 2869 
Q 2181 2869 2598 2426 
Q 3016 1984 3016 1369 
Q 3016 766 2595 347 
Q 2175 -72 1594 -72 
Q 1025 -72 601 345 
z
M 709 1422 
Q 709 800 872 519 
Q 1122 91 1600 91 
Q 1838 91 2036 219 
Q 2234 347 2344 563 
Q 2484 844 2484 1422 
Q 2484 2038 2316 2309 
Q 2066 2725 1594 2725 
Q 1388 2725 1186 2617 
Q 984 2509 863 2297 
Q 709 2016 709 1422 
z
" transform="scale(0.015625)"/>
       <path id="CMUSerif-Roman-20" transform="scale(0.015625)"/>
       <path id="CMUSerif-Roman-28" d="M 634 1600 
Q 634 2681 1038 3553 
Q 1209 3919 1450 4225 
Q 1691 4531 1850 4665 
Q 2009 4800 2053 4800 
Q 2116 4800 2119 4738 
Q 2119 4706 2034 4628 
Q 1003 3578 1006 1600 
Q 1006 -384 2009 -1394 
Q 2119 -1503 2119 -1538 
Q 2119 -1600 2053 -1600 
Q 2009 -1600 1856 -1472 
Q 1703 -1344 1465 -1050 
Q 1228 -756 1056 -397 
Q 634 475 634 1600 
z
" transform="scale(0.015625)"/>
       <path id="CMUSerif-Roman-29" d="M 366 -1538 
Q 366 -1506 447 -1428 
Q 1478 -378 1478 1600 
Q 1478 3584 488 4588 
Q 366 4703 366 4738 
Q 366 4800 428 4800 
Q 472 4800 626 4672 
Q 781 4544 1017 4250 
Q 1253 3956 1428 3597 
Q 1850 2725 1850 1600 
Q 1850 519 1447 -353 
Q 1275 -719 1034 -1025 
Q 794 -1331 634 -1465 
Q 475 -1600 428 -1600 
Q 366 -1600 366 -1538 
z
" transform="scale(0.015625)"/>
      </defs>
      <use xlink:href="#CMUSerif-Roman-44"/>
      <use xlink:href="#CMUSerif-Roman-69" x="76.269531"/>
      <use xlink:href="#CMUSerif-Roman-6d" x="103.955078"/>
      <use xlink:href="#CMUSerif-Roman-65" x="187.207031"/>
      <use xlink:href="#CMUSerif-Roman-6e" x="231.591797"/>
      <use xlink:href="#CMUSerif-Roman-73" x="287.060547"/>
      <use xlink:href="#CMUSerif-Roman-69" x="326.416016"/>
      <use xlink:href="#CMUSerif-Roman-6f" x="354.101562"/>
      <use xlink:href="#CMUSerif-Roman-6e" x="404.101562"/>
      <use xlink:href="#CMUSerif-Roman-20" x="459.570312"/>
      <use xlink:href="#CMUSerif-Roman-28" x="492.822266"/>
      <use xlink:href="#CMUSerif-Roman-6e" x="531.591797"/>
      <use xlink:href="#CMUSerif-Roman-29" x="587.060547"/>
     </g>
    </g>
   </g>
   <g id="matplotlib.axis_2">
    <g id="ytick_1">
     <g id="line2d_13">
      <path d="M 59.465 348.527815 
L 700.56 348.527815 
" clip-path="url(#paf557f6d32)" style="fill: none; stroke: #ffffff; stroke-width: 0.8; stroke-linecap: square"/>
     </g>
     <g id="line2d_14">
      <defs>
       <path id="m69477edf9a" d="M 0 0 
L -3.5 0 
" style="stroke: #555555; stroke-width: 0.8"/>
      </defs>
      <g>
       <use xlink:href="#m69477edf9a" x="59.465" y="348.527815" style="fill: #555555; stroke: #555555; stroke-width: 0.8"/>
      </g>
     </g>
     <g id="text_8">
      <!-- 0 -->
      <g style="fill: #555555" transform="translate(43.465 354.772971) scale(0.18 -0.18)">
       <use xlink:href="#CMUSerif-Roman-30"/>
      </g>
     </g>
    </g>
    <g id="ytick_2">
     <g id="line2d_15">
      <path d="M 59.465 293.262454 
L 700.56 293.262454 
" clip-path="url(#paf557f6d32)" style="fill: none; stroke: #ffffff; stroke-width: 0.8; stroke-linecap: square"/>
     </g>
     <g id="line2d_16">
      <g>
       <use xlink:href="#m69477edf9a" x="59.465" y="293.262454" style="fill: #555555; stroke: #555555; stroke-width: 0.8"/>
      </g>
     </g>
     <g id="text_9">
      <!-- 1 -->
      <g style="fill: #555555" transform="translate(43.465 299.50761) scale(0.18 -0.18)">
       <use xlink:href="#CMUSerif-Roman-31"/>
      </g>
     </g>
    </g>
    <g id="ytick_3">
     <g id="line2d_17">
      <path d="M 59.465 237.997093 
L 700.56 237.997093 
" clip-path="url(#paf557f6d32)" style="fill: none; stroke: #ffffff; stroke-width: 0.8; stroke-linecap: square"/>
     </g>
     <g id="line2d_18">
      <g>
       <use xlink:href="#m69477edf9a" x="59.465" y="237.997093" style="fill: #555555; stroke: #555555; stroke-width: 0.8"/>
      </g>
     </g>
     <g id="text_10">
      <!-- 2 -->
      <g style="fill: #555555" transform="translate(43.465 244.242249) scale(0.18 -0.18)">
       <use xlink:href="#CMUSerif-Roman-32"/>
      </g>
     </g>
    </g>
    <g id="ytick_4">
     <g id="line2d_19">
      <path d="M 59.465 182.731731 
L 700.56 182.731731 
" clip-path="url(#paf557f6d32)" style="fill: none; stroke: #ffffff; stroke-width: 0.8; stroke-linecap: square"/>
     </g>
     <g id="line2d_20">
      <g>
       <use xlink:href="#m69477edf9a" x="59.465" y="182.731731" style="fill: #555555; stroke: #555555; stroke-width: 0.8"/>
      </g>
     </g>
     <g id="text_11">
      <!-- 3 -->
      <g style="fill: #555555" transform="translate(43.465 188.976888) scale(0.18 -0.18)">
       <defs>
        <path id="CMUSerif-Roman-33" d="M 269 863 
Q 269 1053 378 1143 
Q 488 1234 628 1234 
Q 775 1234 879 1139 
Q 984 1044 984 878 
Q 984 700 861 600 
Q 738 500 563 525 
Q 716 269 998 153 
Q 1281 38 1544 38 
Q 1819 38 2042 275 
Q 2266 513 2266 1094 
Q 2266 1588 2073 1872 
Q 1881 2156 1503 2156 
L 1222 2156 
Q 1125 2156 1097 2165 
Q 1069 2175 1069 2228 
Q 1069 2291 1166 2303 
Q 1263 2303 1416 2322 
Q 1788 2334 1984 2656 
Q 2163 2956 2163 3384 
Q 2163 3775 1977 3939 
Q 1791 4103 1550 4103 
Q 1325 4103 1078 4009 
Q 831 3916 697 3706 
Q 1094 3706 1094 3384 
Q 1094 3244 1005 3151 
Q 916 3059 769 3059 
Q 628 3059 534 3148 
Q 441 3238 441 3391 
Q 441 3756 767 4009 
Q 1094 4263 1575 4263 
Q 2050 4263 2401 4013 
Q 2753 3763 2753 3378 
Q 2753 3000 2503 2690 
Q 2253 2381 1856 2253 
Q 2344 2156 2634 1826 
Q 2925 1497 2925 1094 
Q 2925 594 2531 226 
Q 2138 -141 1563 -141 
Q 1031 -141 650 146 
Q 269 434 269 863 
z
" transform="scale(0.015625)"/>
       </defs>
       <use xlink:href="#CMUSerif-Roman-33"/>
      </g>
     </g>
    </g>
    <g id="ytick_5">
     <g id="line2d_21">
      <path d="M 59.465 127.46637 
L 700.56 127.46637 
" clip-path="url(#paf557f6d32)" style="fill: none; stroke: #ffffff; stroke-width: 0.8; stroke-linecap: square"/>
     </g>
     <g id="line2d_22">
      <g>
       <use xlink:href="#m69477edf9a" x="59.465" y="127.46637" style="fill: #555555; stroke: #555555; stroke-width: 0.8"/>
      </g>
     </g>
     <g id="text_12">
      <!-- 4 -->
      <g style="fill: #555555" transform="translate(43.465 133.711526) scale(0.18 -0.18)">
       <defs>
        <path id="CMUSerif-Roman-34" d="M 178 1056 
L 178 1253 
L 2144 4256 
Q 2194 4334 2272 4331 
Q 2344 4331 2359 4303 
Q 2375 4275 2375 4166 
L 2375 1253 
L 3016 1253 
L 3016 1056 
L 2375 1056 
L 2375 500 
Q 2375 316 2451 256 
Q 2528 197 2859 197 
L 2994 197 
L 2994 0 
Q 2731 19 2125 19 
Q 1522 19 1259 0 
L 1259 197 
L 1394 197 
Q 1725 197 1803 255 
Q 1881 313 1881 500 
L 1881 1056 
L 178 1056 
z
M 359 1253 
L 1919 1253 
L 1919 3641 
L 359 1253 
z
" transform="scale(0.015625)"/>
       </defs>
       <use xlink:href="#CMUSerif-Roman-34"/>
      </g>
     </g>
    </g>
    <g id="ytick_6">
     <g id="line2d_23">
      <path d="M 59.465 72.201009 
L 700.56 72.201009 
" clip-path="url(#paf557f6d32)" style="fill: none; stroke: #ffffff; stroke-width: 0.8; stroke-linecap: square"/>
     </g>
     <g id="line2d_24">
      <g>
       <use xlink:href="#m69477edf9a" x="59.465" y="72.201009" style="fill: #555555; stroke: #555555; stroke-width: 0.8"/>
      </g>
     </g>
     <g id="text_13">
      <!-- 5 -->
      <g style="fill: #555555" transform="translate(43.465 78.446165) scale(0.18 -0.18)">
       <use xlink:href="#CMUSerif-Roman-35"/>
      </g>
     </g>
    </g>
    <g id="text_14">
     <!-- Volume of Unit n-Ball -->
     <g style="fill: #555555" transform="translate(35.276625 308.649125) rotate(-90) scale(0.216 -0.216)">
      <defs>
       <path id="CMUSerif-Roman-56" d="M 122 4172 
L 122 4372 
Q 813 4353 934 4353 
Q 1619 4353 1850 4372 
L 1850 4172 
Q 1325 4172 1325 3988 
Q 1325 3963 1363 3872 
L 2584 641 
L 3756 3725 
Q 3788 3822 3788 3853 
Q 3788 3981 3670 4073 
Q 3553 4166 3322 4172 
L 3322 4372 
Q 3822 4353 4050 4353 
Q 4375 4353 4672 4372 
L 4672 4172 
Q 4134 4166 3975 3744 
L 2547 -19 
Q 2522 -97 2497 -119 
Q 2472 -141 2394 -141 
Q 2331 -141 2298 -116 
Q 2266 -91 2234 0 
L 750 3928 
Q 688 4100 575 4136 
Q 463 4172 122 4172 
z
" transform="scale(0.015625)"/>
       <path id="CMUSerif-Roman-6c" d="M 213 0 
L 213 197 
Q 553 197 631 239 
Q 709 281 709 488 
L 709 3816 
Q 709 4053 626 4112 
Q 544 4172 213 4172 
L 213 4372 
L 1131 4441 
L 1131 488 
Q 1131 281 1212 239 
Q 1294 197 1631 197 
L 1631 0 
Q 1553 0 1390 6 
Q 1228 13 1109 16 
Q 991 19 922 19 
Q 847 19 213 0 
z
" transform="scale(0.015625)"/>
       <path id="CMUSerif-Roman-75" d="M 206 2559 
L 206 2759 
L 1147 2828 
L 1147 703 
Q 1147 550 1159 461 
Q 1172 372 1223 269 
Q 1275 166 1395 119 
Q 1516 72 1709 72 
Q 2056 72 2270 356 
Q 2484 641 2484 1063 
L 2484 2203 
Q 2484 2441 2400 2500 
Q 2316 2559 1984 2559 
L 1984 2759 
L 2925 2828 
L 2925 556 
Q 2925 319 3008 258 
Q 3091 197 3425 197 
L 3425 0 
L 2503 -72 
L 2503 506 
Q 2234 -69 1678 -72 
Q 1397 -72 1205 0 
Q 1013 72 916 161 
Q 819 250 767 422 
Q 716 594 709 700 
Q 703 806 703 1013 
L 703 1972 
Q 703 2406 640 2482 
Q 578 2559 206 2559 
z
" transform="scale(0.015625)"/>
       <path id="CMUSerif-Roman-66" d="M 213 2559 
L 213 2759 
L 716 2759 
L 716 3494 
Q 716 3969 1023 4241 
Q 1331 4513 1709 4513 
Q 1959 4513 2121 4378 
Q 2284 4244 2284 4063 
Q 2284 3941 2211 3861 
Q 2138 3781 2003 3781 
Q 1875 3781 1801 3862 
Q 1728 3944 1728 4056 
Q 1728 4263 1919 4325 
Q 1822 4369 1709 4372 
Q 1478 4372 1298 4134 
Q 1119 3897 1119 3500 
L 1119 2759 
L 1869 2759 
L 1869 2559 
L 1141 2559 
L 1141 500 
Q 1141 316 1217 256 
Q 1294 197 1625 197 
L 1759 197 
L 1759 0 
Q 1503 19 947 19 
Q 869 19 748 16 
Q 628 13 467 6 
Q 306 0 219 0 
L 219 197 
Q 559 197 637 239 
Q 716 281 716 488 
L 716 2559 
L 213 2559 
z
" transform="scale(0.015625)"/>
       <path id="CMUSerif-Roman-55" d="M 213 4172 
L 213 4372 
Q 438 4353 1159 4353 
Q 1875 4353 2100 4372 
L 2100 4172 
L 1947 4172 
Q 1600 4172 1520 4114 
Q 1441 4056 1441 3872 
L 1441 1434 
Q 1441 1006 1559 711 
Q 1678 416 1862 284 
Q 2047 153 2198 104 
Q 2350 56 2497 56 
Q 2984 56 3354 443 
Q 3725 831 3725 1478 
L 3725 3700 
Q 3725 3797 3712 3853 
Q 3700 3909 3645 3996 
Q 3591 4084 3444 4128 
Q 3297 4172 3066 4172 
L 3066 4372 
Q 3756 4353 3828 4353 
Q 3891 4353 4581 4372 
L 4581 4172 
Q 4350 4172 4203 4131 
Q 4056 4091 4003 4000 
Q 3950 3909 3936 3845 
Q 3922 3781 3922 3675 
L 3922 1625 
Q 3922 1313 3903 1184 
Q 3819 628 3423 243 
Q 3028 -141 2484 -141 
Q 1825 -141 1348 323 
Q 872 788 872 1459 
L 872 3872 
Q 872 4056 790 4114 
Q 709 4172 366 4172 
L 213 4172 
z
" transform="scale(0.015625)"/>
       <path id="CMUSerif-Roman-74" d="M 122 2559 
L 122 2700 
Q 416 2713 611 2920 
Q 806 3128 873 3384 
Q 941 3641 947 3938 
L 1106 3938 
L 1106 2759 
L 2022 2759 
L 2022 2559 
L 1106 2559 
L 1106 781 
Q 1106 91 1538 91 
Q 1722 91 1844 280 
Q 1966 469 1966 806 
L 1966 1159 
L 2125 1159 
L 2125 794 
Q 2125 447 1965 187 
Q 1806 -72 1491 -72 
Q 1375 -72 1261 -42 
Q 1147 -13 998 64 
Q 850 141 758 330 
Q 666 519 666 794 
L 666 2559 
L 122 2559 
z
" transform="scale(0.015625)"/>
       <path id="CMUSerif-Roman-2d" d="M 63 1191 
L 63 1569 
L 1766 1569 
L 1766 1191 
L 63 1191 
z
" transform="scale(0.015625)"/>
       <path id="CMUSerif-Roman-42" d="M 231 0 
L 231 197 
L 384 197 
Q 731 197 811 255 
Q 891 313 891 500 
L 891 3872 
Q 891 4056 809 4114 
Q 728 4172 384 4172 
L 231 4172 
L 231 4372 
L 2572 4372 
Q 3181 4372 3587 4045 
Q 3994 3719 3994 3291 
Q 3994 2938 3695 2656 
Q 3397 2375 2931 2284 
Q 3463 2228 3814 1908 
Q 4166 1588 4166 1172 
Q 4166 703 3762 351 
Q 3359 0 2741 0 
L 231 0 
z
M 1422 453 
Q 1422 288 1469 242 
Q 1516 197 1734 197 
L 2534 197 
Q 2994 197 3259 498 
Q 3525 800 3525 1178 
Q 3525 1556 3292 1879 
Q 3059 2203 2625 2203 
L 1422 2203 
L 1422 453 
z
M 1422 2344 
L 2350 2344 
Q 2844 2344 3108 2641 
Q 3372 2938 3372 3291 
Q 3372 3603 3161 3887 
Q 2950 4172 2528 4172 
L 1734 4172 
Q 1516 4172 1469 4128 
Q 1422 4084 1422 3916 
L 1422 2344 
z
" transform="scale(0.015625)"/>
       <path id="CMUSerif-Roman-61" d="M 269 609 
Q 269 1153 909 1441 
Q 1294 1625 2088 1672 
L 2088 1906 
Q 2088 2303 1880 2514 
Q 1672 2725 1409 2725 
Q 941 2725 716 2431 
Q 906 2425 975 2329 
Q 1044 2234 1044 2138 
Q 1044 2009 964 1926 
Q 884 1844 750 1844 
Q 622 1844 537 1923 
Q 453 2003 453 2144 
Q 453 2456 736 2662 
Q 1019 2869 1422 2869 
Q 1947 2869 2297 2516 
Q 2406 2406 2461 2265 
Q 2516 2125 2522 2033 
Q 2528 1941 2528 1759 
L 2528 481 
Q 2528 444 2540 381 
Q 2553 319 2611 239 
Q 2669 159 2766 159 
Q 2997 159 2994 569 
L 2994 928 
L 3156 928 
L 3156 569 
Q 3156 228 2976 95 
Q 2797 -38 2631 -38 
Q 2419 -38 2284 118 
Q 2150 275 2131 488 
Q 2034 244 1814 86 
Q 1594 -72 1294 -72 
Q 1063 -72 845 -14 
Q 628 44 448 205 
Q 269 366 269 609 
z
M 763 616 
Q 763 378 931 225 
Q 1100 72 1338 72 
Q 1606 72 1847 280 
Q 2088 488 2088 897 
L 2088 1538 
Q 1378 1513 1070 1230 
Q 763 947 763 616 
z
" transform="scale(0.015625)"/>
      </defs>
      <use xlink:href="#CMUSerif-Roman-56"/>
      <use xlink:href="#CMUSerif-Roman-6f" x="75"/>
      <use xlink:href="#CMUSerif-Roman-6c" x="125"/>
      <use xlink:href="#CMUSerif-Roman-75" x="152.685547"/>
      <use xlink:href="#CMUSerif-Roman-6d" x="208.154297"/>
      <use xlink:href="#CMUSerif-Roman-65" x="291.40625"/>
      <use xlink:href="#CMUSerif-Roman-20" x="335.791016"/>
      <use xlink:href="#CMUSerif-Roman-6f" x="369.042969"/>
      <use xlink:href="#CMUSerif-Roman-66" x="419.042969"/>
      <use xlink:href="#CMUSerif-Roman-20" x="449.511719"/>
      <use xlink:href="#CMUSerif-Roman-55" x="482.763672"/>
      <use xlink:href="#CMUSerif-Roman-6e" x="557.763672"/>
      <use xlink:href="#CMUSerif-Roman-69" x="613.232422"/>
      <use xlink:href="#CMUSerif-Roman-74" x="640.917969"/>
      <use xlink:href="#CMUSerif-Roman-20" x="679.6875"/>
      <use xlink:href="#CMUSerif-Roman-6e" x="712.939453"/>
      <use xlink:href="#CMUSerif-Roman-2d" x="768.408203"/>
      <use xlink:href="#CMUSerif-Roman-42" x="801.660156"/>
      <use xlink:href="#CMUSerif-Roman-61" x="872.412109"/>
      <use xlink:href="#CMUSerif-Roman-6c" x="922.412109"/>
      <use xlink:href="#CMUSerif-Roman-6c" x="950.097656"/>
     </g>
    </g>
   </g>
   <g id="line2d_25">
    <path d="M 88.605682 237.997093 
L 112.889583 174.906562 
L 137.173485 117.032811 
L 161.457386 75.804189 
L 185.741288 57.622614 
L 210.025189 62.932301 
L 234.309091 87.411917 
L 258.592992 124.221623 
L 282.876894 166.234529 
L 307.160795 207.592078 
L 331.444697 244.402134 
L 355.728598 274.734036 
L 380.0125 298.201588 
L 404.296402 315.409245 
L 428.580303 327.447215 
L 452.864205 335.522183 
L 477.148106 340.736443 
L 501.432008 343.987993 
L 525.715909 345.951256 
L 549.999811 347.101588 
L 574.283712 347.75691 
L 598.567614 348.120486 
L 622.851515 348.317218 
L 647.135417 348.421177 
L 671.419318 348.474886 
" clip-path="url(#paf557f6d32)" style="fill: none; stroke-dasharray: 7.4,3.2; stroke-dashoffset: 0; stroke: #333333; stroke-width: 2"/>
    <defs>
     <path id="m40bffd3356" d="M 0 6 
C 1.591219 6 3.117479 5.367802 4.242641 4.242641 
C 5.367802 3.117479 6 1.591219 6 0 
C 6 -1.591219 5.367802 -3.117479 4.242641 -4.242641 
C 3.117479 -5.367802 1.591219 -6 0 -6 
C -1.591219 -6 -3.117479 -5.367802 -4.242641 -4.242641 
C -5.367802 -3.117479 -6 -1.591219 -6 0 
C -6 1.591219 -5.367802 3.117479 -4.242641 4.242641 
C -3.117479 5.367802 -1.591219 6 0 6 
z
" style="stroke: #333333"/>
    </defs>
    <g clip-path="url(#paf557f6d32)">
     <use xlink:href="#m40bffd3356" x="88.605682" y="237.997093" style="fill: #333333; stroke: #333333"/>
     <use xlink:href="#m40bffd3356" x="112.889583" y="174.906562" style="fill: #333333; stroke: #333333"/>
     <use xlink:href="#m40bffd3356" x="137.173485" y="117.032811" style="fill: #333333; stroke: #333333"/>
     <use xlink:href="#m40bffd3356" x="161.457386" y="75.804189" style="fill: #333333; stroke: #333333"/>
     <use xlink:href="#m40bffd3356" x="185.741288" y="57.622614" style="fill: #333333; stroke: #333333"/>
     <use xlink:href="#m40bffd3356" x="210.025189" y="62.932301" style="fill: #333333; stroke: #333333"/>
     <use xlink:href="#m40bffd3356" x="234.309091" y="87.411917" style="fill: #333333; stroke: #333333"/>
     <use xlink:href="#m40bffd3356" x="258.592992" y="124.221623" style="fill: #333333; stroke: #333333"/>
     <use xlink:href="#m40bffd3356" x="282.876894" y="166.234529" style="fill: #333333; stroke: #333333"/>
     <use xlink:href="#m40bffd3356" x="307.160795" y="207.592078" style="fill: #333333; stroke: #333333"/>
     <use xlink:href="#m40bffd3356" x="331.444697" y="244.402134" style="fill: #333333; stroke: #333333"/>
     <use xlink:href="#m40bffd3356" x="355.728598" y="274.734036" style="fill: #333333; stroke: #333333"/>
     <use xlink:href="#m40bffd3356" x="380.0125" y="298.201588" style="fill: #333333; stroke: #333333"/>
     <use xlink:href="#m40bffd3356" x="404.296402" y="315.409245" style="fill: #333333; stroke: #333333"/>
     <use xlink:href="#m40bffd3356" x="428.580303" y="327.447215" style="fill: #333333; stroke: #333333"/>
     <use xlink:href="#m40bffd3356" x="452.864205" y="335.522183" style="fill: #333333; stroke: #333333"/>
     <use xlink:href="#m40bffd3356" x="477.148106" y="340.736443" style="fill: #333333; stroke: #333333"/>
     <use xlink:href="#m40bffd3356" x="501.432008" y="343.987993" style="fill: #333333; stroke: #333333"/>
     <use xlink:href="#m40bffd3356" x="525.715909" y="345.951256" style="fill: #333333; stroke: #333333"/>
     <use xlink:href="#m40bffd3356" x="549.999811" y="347.101588" style="fill: #333333; stroke: #333333"/>
     <use xlink:href="#m40bffd3356" x="574.283712" y="347.75691" style="fill: #333333; stroke: #333333"/>
     <use xlink:href="#m40bffd3356" x="598.567614" y="348.120486" style="fill: #333333; stroke: #333333"/>
     <use xlink:href="#m40bffd3356" x="622.851515" y="348.317218" style="fill: #333333; stroke: #333333"/>
     <use xlink:href="#m40bffd3356" x="647.135417" y="348.421177" style="fill: #333333; stroke: #333333"/>
     <use xlink:href="#m40bffd3356" x="671.419318" y="348.474886" style="fill: #333333; stroke: #333333"/>
    </g>
   </g>
   <g id="patch_3">
    <path d="M 59.465 363.0175 
L 59.465 43.08 
" style="fill: none; stroke: #ffffff; stroke-linejoin: miter; stroke-linecap: square"/>
   </g>
   <g id="patch_4">
    <path d="M 700.56 363.0175 
L 700.56 43.08 
" style="fill: none; stroke: #ffffff; stroke-linejoin: miter; stroke-linecap: square"/>
   </g>
   <g id="patch_5">
    <path d="M 59.465 363.0175 
L 700.56 363.0175 
" style="fill: none; stroke: #ffffff; stroke-linejoin: miter; stroke-linecap: square"/>
   </g>
   <g id="patch_6">
    <path d="M 59.465 43.08 
L 700.56 43.08 
" style="fill: none; stroke: #ffffff; stroke-linejoin: miter; stroke-linecap: square"/>
   </g>
   <g id="text_15">
    <!-- Volume of Unit n-Ball vs. Dimension -->
    <g transform="translate(169.5826 37.08) scale(0.2592 -0.2592)">
     <defs>
      <path id="CMUSerif-Roman-76" d="M 122 2559 
L 122 2759 
Q 409 2741 744 2741 
Q 866 2741 1441 2759 
L 1441 2559 
Q 1075 2559 1075 2394 
Q 1075 2369 1113 2284 
L 1831 500 
L 2484 2131 
Q 2522 2241 2522 2284 
Q 2522 2394 2448 2473 
Q 2375 2553 2216 2559 
L 2216 2759 
Q 2541 2741 2772 2741 
Q 3034 2741 3250 2759 
L 3250 2559 
Q 3059 2559 2925 2473 
Q 2791 2388 2748 2314 
Q 2706 2241 2663 2131 
L 1825 50 
Q 1775 -72 1691 -72 
Q 1634 -72 1611 -48 
Q 1588 -25 1556 50 
L 634 2322 
Q 572 2481 490 2520 
Q 409 2559 122 2559 
z
" transform="scale(0.015625)"/>
      <path id="CMUSerif-Roman-2e" d="M 641 103 
Q 544 206 544 340 
Q 544 475 641 573 
Q 738 672 884 672 
Q 1025 672 1120 580 
Q 1216 488 1216 339 
Q 1216 191 1114 95 
Q 1013 0 884 0 
Q 738 0 641 103 
z
" transform="scale(0.015625)"/>
     </defs>
     <use xlink:href="#CMUSerif-Roman-56"/>
     <use xlink:href="#CMUSerif-Roman-6f" x="75"/>
     <use xlink:href="#CMUSerif-Roman-6c" x="125"/>
     <use xlink:href="#CMUSerif-Roman-75" x="152.685547"/>
     <use xlink:href="#CMUSerif-Roman-6d" x="208.154297"/>
     <use xlink:href="#CMUSerif-Roman-65" x="291.40625"/>
     <use xlink:href="#CMUSerif-Roman-20" x="335.791016"/>
     <use xlink:href="#CMUSerif-Roman-6f" x="369.042969"/>
     <use xlink:href="#CMUSerif-Roman-66" x="419.042969"/>
     <use xlink:href="#CMUSerif-Roman-20" x="449.511719"/>
     <use xlink:href="#CMUSerif-Roman-55" x="482.763672"/>
     <use xlink:href="#CMUSerif-Roman-6e" x="557.763672"/>
     <use xlink:href="#CMUSerif-Roman-69" x="613.232422"/>
     <use xlink:href="#CMUSerif-Roman-74" x="640.917969"/>
     <use xlink:href="#CMUSerif-Roman-20" x="679.6875"/>
     <use xlink:href="#CMUSerif-Roman-6e" x="712.939453"/>
     <use xlink:href="#CMUSerif-Roman-2d" x="768.408203"/>
     <use xlink:href="#CMUSerif-Roman-42" x="801.660156"/>
     <use xlink:href="#CMUSerif-Roman-61" x="872.412109"/>
     <use xlink:href="#CMUSerif-Roman-6c" x="922.412109"/>
     <use xlink:href="#CMUSerif-Roman-6c" x="950.097656"/>
     <use xlink:href="#CMUSerif-Roman-20" x="977.783203"/>
     <use xlink:href="#CMUSerif-Roman-76" x="1011.035156"/>
     <use xlink:href="#CMUSerif-Roman-73" x="1063.720703"/>
     <use xlink:href="#CMUSerif-Roman-2e" x="1103.076172"/>
     <use xlink:href="#CMUSerif-Roman-20" x="1130.859375"/>
     <use xlink:href="#CMUSerif-Roman-44" x="1164.111328"/>
     <use xlink:href="#CMUSerif-Roman-69" x="1240.380859"/>
     <use xlink:href="#CMUSerif-Roman-6d" x="1268.066406"/>
     <use xlink:href="#CMUSerif-Roman-65" x="1351.318359"/>
     <use xlink:href="#CMUSerif-Roman-6e" x="1395.703125"/>
     <use xlink:href="#CMUSerif-Roman-73" x="1451.171875"/>
     <use xlink:href="#CMUSerif-Roman-69" x="1490.527344"/>
     <use xlink:href="#CMUSerif-Roman-6f" x="1518.212891"/>
     <use xlink:href="#CMUSerif-Roman-6e" x="1568.212891"/>
    </g>
   </g>
  </g>
 </g>
 <defs>
  <clipPath id="paf557f6d32">
   <rect x="59.465" y="43.08" width="641.095" height="319.9375"/>
  </clipPath>
 </defs>
</svg>
