<?xml version="1.0" encoding="UTF-8"?>
<!DOCTYPE svg PUBLIC "-//W3C//DTD SVG 1.1//EN" "http://www.w3.org/Graphics/SVG/1.1/DTD/svg11.dtd">
<svg xmlns="http://www.w3.org/2000/svg" version="1.1" width="288px" height="288px" viewBox="0 0 288 288">
	<title>Hierarchical network model example</title>
	<g stroke="black" stroke-opacity="1" stroke-width="1" fill="none">
		<!-- central -->
		<line x1="144" y1="144" x2="115" y2="115"/>
		<line x1="144" y1="144" x2="115" y2="173"/>
		<line x1="144" y1="144" x2="173" y2="115"/>
		<line x1="144" y1="144" x2="173" y2="173"/>
		<line x1="115" y1="115" x2="115" y2="173"/>
		<line x1="115" y1="173" x2="173" y2="173"/>
		<line x1="173" y1="173" x2="173" y2="115"/>
		<line x1="173" y1="115" x2="115" y2="115"/>

		<!-- left -->
		<line x1="144" y1="144" x2="20" y2="115"/>
		<line x1="144" y1="144" x2="20" y2="173"/>
		<line x1="144" y1="144" x2="78" y2="115"/>
		<line x1="144" y1="144" x2="78" y2="173"/>
		<line x1="49" y1="144" x2="20" y2="115"/>
		<line x1="49" y1="144" x2="20" y2="173"/>
		<line x1="49" y1="144" x2="78" y2="115"/>
		<line x1="49" y1="144" x2="78" y2="173"/>
		<line x1="20" y1="115" x2="20" y2="173"/>
		<line x1="20" y1="173" x2="78" y2="173"/>
		<line x1="78" y1="173" x2="78" y2="115"/>
		<line x1="78" y1="115" x2="20" y2="115"/>

		<!-- top -->
		<line x1="144" y1="144" x2="115" y2="20"/>
		<line x1="144" y1="144" x2="115" y2="78"/>
		<line x1="144" y1="144" x2="173" y2="20"/>
		<line x1="144" y1="144" x2="173" y2="78"/>
		<line x1="144" y1="49" x2="115" y2="20"/>
		<line x1="144" y1="49" x2="115" y2="78"/>
		<line x1="144" y1="49" x2="173" y2="20"/>
		<line x1="144" y1="49" x2="173" y2="78"/>
		<line x1="115" y1="20" x2="115" y2="78"/>
		<line x1="115" y1="78" x2="173" y2="78"/>
		<line x1="173" y1="78" x2="173" y2="20"/>
		<line x1="173" y1="20" x2="115" y2="20"/>

		<!-- right -->
		<line x1="144" y1="144" x2="210" y2="115"/>
		<line x1="144" y1="144" x2="210" y2="173"/>
		<line x1="144" y1="144" x2="268" y2="115"/>
		<line x1="144" y1="144" x2="268" y2="173"/>
		<line x1="239" y1="144" x2="210" y2="115"/>
		<line x1="239" y1="144" x2="210" y2="173"/>
		<line x1="239" y1="144" x2="268" y2="115"/>
		<line x1="239" y1="144" x2="268" y2="173"/>
		<line x1="210" y1="115" x2="210" y2="173"/>
		<line x1="210" y1="173" x2="268" y2="173"/>
		<line x1="268" y1="173" x2="268" y2="115"/>
		<line x1="268" y1="115" x2="210" y2="115"/>

		<!-- bottom -->
		<line x1="144" y1="144" x2="115" y2="210"/>
		<line x1="144" y1="144" x2="115" y2="268"/>
		<line x1="144" y1="144" x2="173" y2="210"/>
		<line x1="144" y1="144" x2="173" y2="268"/>
		<line x1="144" y1="239" x2="115" y2="210"/>
		<line x1="144" y1="239" x2="115" y2="268"/>
		<line x1="144" y1="239" x2="173" y2="210"/>
		<line x1="144" y1="239" x2="173" y2="268"/>
		<line x1="115" y1="210" x2="115" y2="268"/>
		<line x1="115" y1="268" x2="173" y2="268"/>
		<line x1="173" y1="268" x2="173" y2="210"/>
		<line x1="173" y1="210" x2="115" y2="210"/>

	</g>
	<g fill="lightblue" stroke="black" stroke-width="1">
		<circle cx="144" cy="144" r="10"/>
		<circle cx="115" cy="115" r="10"/>
		<circle cx="115" cy="173" r="10"/>
		<circle cx="173" cy="173" r="10"/>
		<circle cx="173" cy="115" r="10"/>

		<circle cx="49" cy="144" r="10"/>
		<circle cx="20" cy="115" r="10"/>
		<circle cx="20" cy="173" r="10"/>
		<circle cx="78" cy="173" r="10"/>
		<circle cx="78" cy="115" r="10"/>

		<circle cx="144" cy="49" r="10"/>
		<circle cx="115" cy="20" r="10"/>
		<circle cx="115" cy="78" r="10"/>
		<circle cx="173" cy="78" r="10"/>
		<circle cx="173" cy="20" r="10"/>

		<circle cx="239" cy="144" r="10"/>
		<circle cx="210" cy="115" r="10"/>
		<circle cx="210" cy="173" r="10"/>
		<circle cx="268" cy="173" r="10"/>
		<circle cx="268" cy="115" r="10"/>

		<circle cx="144" cy="239" r="10"/>
		<circle cx="115" cy="210" r="10"/>
		<circle cx="115" cy="268" r="10"/>
		<circle cx="173" cy="268" r="10"/>
		<circle cx="173" cy="210" r="10"/>
	</g>
</svg>
